<svg width="28" height="25" viewBox="0 0 28 25" fill="none" xmlns="http://www.w3.org/2000/svg">
<path d="M1.52863 6.04079V5.40918C1.36201 5.40918 1.20222 5.47572 1.0844 5.59417C0.96658 5.71262 0.900391 5.87327 0.900391 6.04079H1.52863ZM15.35 6.04079H15.9782C15.9782 5.87327 15.912 5.71262 15.7942 5.59417C15.6764 5.47572 15.5166 5.40918 15.35 5.40918V6.04079ZM15.35 8.56722V7.93561C15.1834 7.93561 15.0236 8.00216 14.9057 8.1206C14.7879 8.23905 14.7217 8.39971 14.7217 8.56722H15.35ZM1.52863 6.6724H15.35V5.40918H1.52863V6.6724ZM14.7217 6.04079V21.1994H15.9782V6.04079H14.7217ZM2.15688 18.6729V6.04079H0.900391V18.6729H2.15688ZM15.35 9.19883H21.6324V7.93561H15.35V9.19883ZM26.0301 13.6201V18.6729H27.2866V13.6201H26.0301ZM15.9782 21.1994V8.56722H14.7217V21.1994H15.9782ZM22.9643 22.5384C22.6109 22.8932 22.1319 23.0925 21.6324 23.0925C21.133 23.0925 20.6539 22.8932 20.3005 22.5384L19.4109 23.4327C19.7026 23.7261 20.049 23.9588 20.4301 24.1175C20.8113 24.2763 21.2198 24.358 21.6324 24.358C22.045 24.358 22.4535 24.2763 22.8347 24.1175C23.2159 23.9588 23.5622 23.7261 23.8539 23.4327L22.9643 22.5384ZM20.3005 19.8604C20.6539 19.5055 21.133 19.3062 21.6324 19.3062C22.1319 19.3062 22.6109 19.5055 22.9643 19.8604L23.8539 18.966C23.5622 18.6727 23.2159 18.44 22.8347 18.2812C22.4535 18.1225 22.045 18.0408 21.6324 18.0408C21.2198 18.0408 20.8113 18.1225 20.4301 18.2812C20.049 18.44 19.7026 18.6727 19.4109 18.966L20.3005 19.8604ZM7.88645 22.5384C7.53307 22.8932 7.05403 23.0925 6.55458 23.0925C6.05512 23.0925 5.57609 22.8932 5.2227 22.5384L4.33311 23.4327C4.62481 23.7261 4.97113 23.9588 5.3523 24.1175C5.73346 24.2763 6.142 24.358 6.55458 24.358C6.96716 24.358 7.3757 24.2763 7.75686 24.1175C8.13802 23.9588 8.48435 23.7261 8.77605 23.4327L7.88645 22.5384ZM5.2227 19.8604C5.57609 19.5055 6.05512 19.3062 6.55458 19.3062C7.05403 19.3062 7.53307 19.5055 7.88645 19.8604L8.77605 18.966C8.48435 18.6727 8.13802 18.44 7.75686 18.2812C7.3757 18.1225 6.96716 18.0408 6.55458 18.0408C6.142 18.0408 5.73346 18.1225 5.3523 18.2812C4.97113 18.44 4.62481 18.6727 4.33311 18.966L5.2227 19.8604ZM22.9643 19.8604C23.3337 20.2292 23.5171 20.713 23.5171 21.1994H24.7736C24.7736 20.3922 24.467 19.5825 23.8539 18.966L22.9643 19.8604ZM23.5171 21.1994C23.5171 21.6857 23.3337 22.1695 22.9643 22.5384L23.8539 23.4327C24.1459 23.1397 24.3774 22.7915 24.5353 22.4083C24.6931 22.025 24.7741 21.6142 24.7736 21.1994H23.5171ZM19.1194 20.5678H15.35V21.831H19.1194V20.5678ZM20.3005 22.5384C20.1251 22.3629 19.986 22.1542 19.8911 21.9244C19.7962 21.6946 19.7475 21.4482 19.7477 21.1994H18.4912C18.4912 22.0066 18.7978 22.8163 19.4109 23.4327L20.3005 22.5384ZM19.7477 21.1994C19.7477 20.713 19.9311 20.2292 20.3005 19.8604L19.4109 18.966C19.1189 19.2591 18.8874 19.6072 18.7295 19.9905C18.5717 20.3737 18.4907 20.7846 18.4912 21.1994H19.7477ZM5.2227 22.5384C5.0473 22.3629 4.90816 22.1542 4.81328 21.9244C4.7184 21.6946 4.66966 21.4482 4.66985 21.1994H3.41336C3.41336 22.0066 3.71995 22.8163 4.33311 23.4327L5.2227 22.5384ZM4.66985 21.1994C4.66985 20.713 4.8533 20.2292 5.2227 19.8604L4.33311 18.966C4.04111 19.2591 3.80954 19.6072 3.65171 19.9905C3.49387 20.3737 3.41287 20.7846 3.41336 21.1994H4.66985ZM15.35 20.5678H9.06755V21.831H15.35V20.5678ZM7.88645 19.8604C8.25586 20.2292 8.43931 20.713 8.43931 21.1994H9.69579C9.69579 20.3922 9.38921 19.5825 8.77605 18.966L7.88645 19.8604ZM8.43931 21.1994C8.43931 21.6857 8.25586 22.1695 7.88645 22.5384L8.77605 23.4327C9.06805 23.1397 9.29962 22.7915 9.45745 22.4083C9.61528 22.025 9.69628 21.6142 9.69579 21.1994H8.43931ZM26.0301 18.6729C26.0301 19.1755 25.8315 19.6574 25.4781 20.0128C25.1246 20.3681 24.6452 20.5678 24.1454 20.5678V21.831C24.9785 21.831 25.7775 21.4983 26.3666 20.906C26.9557 20.3138 27.2866 19.5105 27.2866 18.6729H26.0301ZM21.6324 9.19883C22.7988 9.19883 23.9173 9.66464 24.7421 10.4938C25.5668 11.3229 26.0301 12.4475 26.0301 13.6201H27.2866C27.2866 12.1125 26.6909 10.6666 25.6305 9.60056C24.5702 8.53451 23.132 7.93561 21.6324 7.93561V9.19883ZM0.900391 18.6729C0.900391 19.5105 1.23134 20.3138 1.82043 20.906C2.40952 21.4983 3.2085 21.831 4.04161 21.831V20.5678C3.54174 20.5678 3.06236 20.3681 2.7089 20.0128C2.35545 19.6574 2.15688 19.1755 2.15688 18.6729H0.900391Z" fill="black"/>
<path d="M8.43952 4.77793C8.43952 3.77285 8.04238 2.80894 7.33547 2.09824C6.62856 1.38755 5.66978 0.988281 4.67006 0.988281C4.33682 0.988281 4.01723 1.12137 3.78159 1.35827C3.54595 1.59517 3.41357 1.91647 3.41357 2.2515C3.41357 3.25657 3.81071 4.22049 4.51762 4.93118C5.22453 5.64188 6.18331 6.04114 7.18303 6.04114H8.43952M8.43952 4.77793V6.04114M8.43952 4.77793C8.43952 3.77285 8.83666 2.80894 9.54357 2.09824C10.2505 1.38755 11.2093 0.988281 12.209 0.988281C12.5422 0.988281 12.8618 1.12137 13.0974 1.35827C13.3331 1.59517 13.4655 1.91647 13.4655 2.2515C13.4655 3.25657 13.0683 4.22049 12.3614 4.93118C11.6545 5.64188 10.6957 6.04114 9.696 6.04114H8.43952" stroke="black" stroke-linejoin="round"/>
</svg>
