<svg width="31" height="31" viewBox="0 0 31 31" fill="none" xmlns="http://www.w3.org/2000/svg">
<g clip-path="url(#clip0_2034_2805)">
<path d="M27.0047 17.4179C26.682 17.1681 26.3063 16.9966 25.9068 16.9169C25.5073 16.8372 25.0949 16.8514 24.7018 16.9584L24.1929 17.0769C26.755 14.6823 28.0507 12.309 28.0507 9.99851C28.0507 6.99521 25.6489 4.55089 22.6957 4.55089C21.8629 4.54564 21.0403 4.73555 20.2932 5.10557C19.546 5.47559 18.8949 6.01552 18.3915 6.68256C17.8881 6.01552 17.237 5.47559 16.4898 5.10557C15.7427 4.73555 14.9201 4.54564 14.0872 4.55089C11.1341 4.55089 8.73226 6.99521 8.73226 9.99851C8.73226 11.3462 9.15986 12.6619 10.0622 14.0676C9.32254 14.1823 8.6389 14.5322 8.11148 15.066L5.37744 17.8147H1.90011C1.46274 17.8147 1.04327 17.9893 0.733998 18.3003C0.424725 18.6112 0.250977 19.0329 0.250977 19.4726V24.2097C0.250977 24.6494 0.424725 25.0711 0.733998 25.382C1.04327 25.693 1.46274 25.8677 1.90011 25.8677H14.1509C14.2088 25.8677 14.2666 25.8605 14.3228 25.8463L21.8618 23.9515C21.8974 23.942 21.9325 23.9301 21.9666 23.916L26.5394 21.9596L26.5783 21.9418C26.9826 21.7388 27.3289 21.4357 27.5844 21.061C27.84 20.6863 27.9965 20.2523 28.0392 19.8C28.0818 19.3477 28.0093 18.8919 27.8283 18.4755C27.6473 18.0592 27.3639 17.6961 27.0047 17.4203V17.4179ZM14.0872 5.97201C14.8645 5.96158 15.6272 6.18456 16.2778 6.6124C16.9283 7.04025 17.437 7.65351 17.7389 8.37369C17.7922 8.50402 17.8827 8.61549 17.9991 8.69393C18.1156 8.77238 18.2525 8.81426 18.3927 8.81426C18.5328 8.81426 18.6698 8.77238 18.7862 8.69393C18.9026 8.61549 18.9932 8.50402 19.0464 8.37369C19.3483 7.65351 19.8571 7.04025 20.5076 6.6124C21.1581 6.18456 21.9208 5.96158 22.6981 5.97201C24.8326 5.97201 26.6372 7.81591 26.6372 9.99851C26.6372 12.3955 24.7313 15.0908 21.1244 17.785L19.3727 18.1901C19.5474 17.7241 19.6071 17.2225 19.5466 16.7282C19.4862 16.234 19.3074 15.7619 19.0256 15.3523C18.7438 14.9428 18.3674 14.6081 17.9287 14.3769C17.49 14.1458 17.0021 14.025 16.5068 14.025H11.7561C10.6594 12.5648 10.1458 11.2787 10.1458 9.99851C10.1458 7.81591 11.9504 5.97201 14.0872 5.97201ZM1.66452 24.2097V19.4726C1.66452 19.4098 1.68934 19.3496 1.73353 19.3051C1.77771 19.2607 1.83763 19.2358 1.90011 19.2358H4.9628V24.4465H1.90011C1.83763 24.4465 1.77771 24.4216 1.73353 24.3772C1.68934 24.3327 1.66452 24.2725 1.66452 24.2097ZM25.9634 20.6569L21.4636 22.5837L14.0637 24.4465H6.37635V18.8201L9.11038 16.0702C9.30685 15.8717 9.54056 15.7143 9.79795 15.6071C10.0554 15.5 10.3313 15.4453 10.6099 15.4461H16.5068C16.9441 15.4461 17.3636 15.6208 17.6729 15.9317C17.9822 16.2427 18.1559 16.6644 18.1559 17.1041C18.1559 17.5438 17.9822 17.9655 17.6729 18.2765C17.3636 18.5874 16.9441 18.7621 16.5068 18.7621H13.2085C13.021 18.7621 12.8413 18.8369 12.7087 18.9702C12.5762 19.1034 12.5017 19.2842 12.5017 19.4726C12.5017 19.6611 12.5762 19.8418 12.7087 19.9751C12.8413 20.1083 13.021 20.1832 13.2085 20.1832H16.9779C17.0311 20.1832 17.084 20.1773 17.1358 20.1654L25.0281 18.3405L25.0564 18.3334C25.3534 18.2519 25.6699 18.2837 25.9451 18.4226C26.2202 18.5615 26.4346 18.7977 26.5471 19.0859C26.6596 19.374 26.6622 19.6938 26.5545 19.9838C26.4467 20.2737 26.2362 20.5135 25.9634 20.6569Z" fill="black"/>
</g>
<defs>
<clipPath id="clip0_2034_2805">
<rect width="30.1557" height="30.3172" fill="white" transform="translate(0.015625 0.524414)"/>
</clipPath>
</defs>
</svg>
