<svg width="304" height="64" viewBox="0 0 304 64" fill="none" xmlns="http://www.w3.org/2000/svg">
<path d="M13.64 51V49.02C15.12 49.02 16.18 48.94 16.82 48.78C17.5 48.58 17.92 48.24 18.08 47.76C18.28 47.28 18.38 46.58 18.38 45.66V16.8C18.38 15.84 18.28 15.12 18.08 14.64C17.88 14.12 17.44 13.78 16.76 13.62C16.12 13.46 15.08 13.38 13.64 13.38V11.4H30.68V13.38C29.12 13.38 27.98 13.46 27.26 13.62C26.58 13.78 26.14 14.12 25.94 14.64C25.78 15.12 25.7 15.84 25.7 16.8V44.16C25.7 45.64 25.9 46.7 26.3 47.34C26.7 47.94 27.4 48.3 28.4 48.42C29.4 48.54 30.8 48.6 32.6 48.6C34.76 48.6 36.44 48.34 37.64 47.82C38.88 47.26 39.84 46.36 40.52 45.12C41.24 43.84 41.88 42.16 42.44 40.08H44L43.34 51H13.64ZM58.385 51.66C55.825 51.66 53.865 50.94 52.505 49.5C51.185 48.06 50.525 45.96 50.525 43.2V28.32C50.525 27.2 50.405 26.46 50.165 26.1C49.925 25.74 49.445 25.56 48.725 25.56H46.925V23.58L55.685 22.5H57.425V41.46C57.425 42.82 57.625 43.96 58.025 44.88C58.425 45.8 59.005 46.52 59.765 47.04C60.565 47.52 61.525 47.76 62.645 47.76C63.485 47.76 64.285 47.58 65.045 47.22C65.845 46.82 66.585 46.36 67.265 45.84C67.945 45.28 68.505 44.76 68.945 44.28V46.8C68.545 47.16 67.825 47.74 66.785 48.54C65.785 49.3 64.565 50.02 63.125 50.7C61.685 51.34 60.105 51.66 58.385 51.66ZM68.945 51V46.86H68.765V28.32C68.765 27.2 68.645 26.46 68.405 26.1C68.205 25.74 67.745 25.56 67.025 25.56H65.225V23.58L73.985 22.5H75.725V46.02C75.725 46.82 75.805 47.44 75.965 47.88C76.165 48.32 76.525 48.62 77.045 48.78C77.605 48.94 78.445 49.02 79.565 49.02V51H68.945ZM96.5173 51V49.02H97.6573C98.3373 49.02 98.7173 48.84 98.7973 48.48C98.9173 48.08 98.7973 47.6 98.4373 47.04L85.1173 26.64C84.6373 25.92 84.1173 25.44 83.5573 25.2C83.0373 24.92 82.1773 24.78 80.9773 24.78V22.8H94.1773V24.78H93.2173C92.7373 24.78 92.4373 24.94 92.3173 25.26C92.1973 25.54 92.2773 25.9 92.5573 26.34L105.997 46.38C106.637 47.34 107.277 48.02 107.917 48.42C108.557 48.82 109.557 49.02 110.917 49.02V51H96.5173ZM80.9773 51V49.02C82.1373 49.02 83.1573 48.84 84.0373 48.48C84.9573 48.08 85.7973 47.38 86.5573 46.38L93.2773 37.86L94.4773 40.02L89.7373 46.8C89.3373 47.36 89.2173 47.88 89.3773 48.36C89.5373 48.8 89.9373 49.02 90.5773 49.02H91.8973V51H80.9773ZM97.4173 35.34L96.1573 33.36L100.897 26.22C101.217 25.7 101.277 25.34 101.077 25.14C100.877 24.9 100.617 24.78 100.297 24.78H98.8573V22.8H108.697V24.78C107.897 24.78 107.197 24.84 106.597 24.96C105.997 25.08 105.477 25.28 105.037 25.56C104.637 25.84 104.257 26.22 103.897 26.7L97.4173 35.34ZM124.194 51.6C119.914 51.6 116.694 50.38 114.534 47.94C112.374 45.5 111.294 41.86 111.294 37.02C111.294 33.7 111.794 30.94 112.794 28.74C113.794 26.54 115.234 24.9 117.114 23.82C119.034 22.74 121.374 22.2 124.134 22.2C126.494 22.2 128.474 22.56 130.074 23.28C131.674 24 132.954 25.02 133.914 26.34C134.874 27.62 135.574 29.12 136.014 30.84C136.454 32.56 136.674 34.44 136.674 36.48V37.26H116.394V34.86H129.354C129.354 32.78 129.234 30.98 128.994 29.46C128.794 27.9 128.334 26.7 127.614 25.86C126.934 25.02 125.854 24.6 124.374 24.6C123.054 24.6 121.954 24.98 121.074 25.74C120.234 26.5 119.614 27.7 119.214 29.34C118.814 30.94 118.614 33.02 118.614 35.58C118.614 37.38 118.734 39.04 118.974 40.56C119.214 42.04 119.614 43.34 120.174 44.46C120.774 45.54 121.594 46.38 122.634 46.98C123.714 47.54 125.074 47.82 126.714 47.82C128.074 47.82 129.254 47.62 130.254 47.22C131.254 46.78 132.114 46.16 132.834 45.36C133.554 44.56 134.154 43.58 134.634 42.42L136.494 43.5C135.974 44.78 135.274 46.04 134.394 47.28C133.514 48.52 132.254 49.56 130.614 50.4C129.014 51.2 126.874 51.6 124.194 51.6ZM140.31 51V49.02C141.51 49.02 142.37 48.94 142.89 48.78C143.45 48.58 143.79 48.26 143.91 47.82C144.07 47.38 144.15 46.78 144.15 46.02V28.68C144.15 27.6 144.03 26.88 143.79 26.52C143.59 26.12 143.15 25.92 142.47 25.92H140.67V23.88L149.31 22.5H150.99V27.72H151.17V46.02C151.17 46.86 151.27 47.5 151.47 47.94C151.71 48.34 152.17 48.62 152.85 48.78C153.57 48.94 154.67 49.02 156.15 49.02V51H140.31ZM150.87 34.68V28.2C151.11 27.68 151.43 27.08 151.83 26.4C152.23 25.72 152.73 25.06 153.33 24.42C153.93 23.74 154.65 23.2 155.49 22.8C156.37 22.36 157.37 22.14 158.49 22.14C160.33 22.14 161.63 22.66 162.39 23.7C163.15 24.74 163.53 25.9 163.53 27.18C163.53 28.46 163.19 29.48 162.51 30.24C161.87 31 160.91 31.38 159.63 31.38C158.55 31.38 157.69 31.1 157.05 30.54C156.45 29.98 156.15 29.2 156.15 28.2C156.15 27.48 156.27 26.94 156.51 26.58C156.75 26.22 156.99 25.94 157.23 25.74C157.47 25.5 157.59 25.28 157.59 25.08C157.59 24.96 157.53 24.84 157.41 24.72C157.33 24.56 157.13 24.48 156.81 24.48C156.29 24.48 155.71 24.74 155.07 25.26C154.43 25.74 153.81 26.44 153.21 27.36C152.61 28.28 152.11 29.36 151.71 30.6C151.35 31.8 151.17 33.1 151.17 34.5L150.87 34.68ZM186.669 51.6C185.709 51.6 184.889 51.5 184.209 51.3C183.529 51.14 183.009 50.78 182.649 50.22C182.289 49.62 182.109 48.74 182.109 47.58V30.3C182.069 28.74 181.649 27.52 180.849 26.64C180.089 25.72 178.649 25.26 176.529 25.26C175.769 25.26 175.069 25.34 174.429 25.5C173.789 25.66 173.289 25.86 172.929 26.1C172.569 26.34 172.389 26.58 172.389 26.82C172.389 27.22 172.529 27.56 172.809 27.84C173.089 28.08 173.369 28.36 173.649 28.68C173.929 29 174.069 29.5 174.069 30.18C174.069 31.18 173.769 31.98 173.169 32.58C172.609 33.14 171.809 33.42 170.769 33.42C169.729 33.42 168.889 33.1 168.249 32.46C167.609 31.82 167.289 30.98 167.289 29.94C167.289 28.62 167.749 27.4 168.669 26.28C169.629 25.12 171.029 24.18 172.869 23.46C174.709 22.74 176.949 22.38 179.589 22.38C182.669 22.38 184.989 23.02 186.549 24.3C188.109 25.54 188.889 27.84 188.889 31.2V44.52C188.889 46.12 189.049 47.2 189.369 47.76C189.729 48.32 190.289 48.6 191.049 48.6C191.409 48.6 191.709 48.56 191.949 48.48C192.189 48.36 192.449 48.24 192.729 48.12L193.329 49.74C192.729 50.1 191.909 50.5 190.869 50.94C189.829 51.38 188.429 51.6 186.669 51.6ZM173.109 51.6C171.069 51.6 169.309 51.1 167.829 50.1C166.389 49.1 165.669 47.6 165.669 45.6C165.669 43.72 166.369 42 167.769 40.44C169.209 38.84 171.249 37.48 173.889 36.36C176.529 35.2 179.669 34.34 183.309 33.78V36.06C179.589 36.78 176.849 37.72 175.089 38.88C173.329 40.04 172.449 41.58 172.449 43.5C172.449 44.7 172.809 45.64 173.529 46.32C174.249 46.96 175.369 47.28 176.889 47.28C177.889 47.28 178.769 47.1 179.529 46.74C180.329 46.34 181.029 45.9 181.629 45.42C182.269 44.9 182.809 44.46 183.249 44.1V46.56C182.489 47.28 181.609 48.04 180.609 48.84C179.609 49.6 178.489 50.26 177.249 50.82C176.049 51.34 174.669 51.6 173.109 51.6ZM227.476 51.72C223.396 51.72 219.896 50.94 216.976 49.38C214.096 47.82 211.896 45.56 210.376 42.6C208.856 39.6 208.096 36 208.096 31.8C208.096 27.48 208.876 23.74 210.436 20.58C211.996 17.42 214.236 14.98 217.156 13.26C220.116 11.54 223.636 10.68 227.716 10.68C229.836 10.68 231.536 10.86 232.816 11.22C234.096 11.58 235.116 11.96 235.876 12.36C236.676 12.72 237.376 12.9 237.976 12.9C238.416 12.9 238.716 12.82 238.876 12.66C239.076 12.46 239.216 12.26 239.296 12.06L239.596 11.4H241.096L241.696 22.86H240.196C239.996 21.78 239.636 20.66 239.116 19.5C238.596 18.34 237.876 17.28 236.956 16.32C236.076 15.36 234.976 14.58 233.656 13.98C232.336 13.38 230.756 13.08 228.916 13.08C226.756 13.08 224.916 13.5 223.396 14.34C221.916 15.18 220.696 16.28 219.736 17.64C218.816 19 218.096 20.5 217.576 22.14C217.096 23.74 216.756 25.34 216.556 26.94C216.396 28.5 216.316 29.9 216.316 31.14C216.316 33.42 216.556 35.64 217.036 37.8C217.516 39.96 218.256 41.9 219.256 43.62C220.256 45.34 221.536 46.72 223.096 47.76C224.696 48.76 226.576 49.26 228.736 49.26C229.456 49.26 230.176 49.2 230.896 49.08C231.616 48.96 232.296 48.82 232.936 48.66C233.616 48.46 234.216 48.24 234.736 48V38.34C234.736 37.02 234.476 36.12 233.956 35.64C233.476 35.12 232.336 34.86 230.536 34.86H229.456V33H245.596V34.86H244.456C243.416 34.86 242.756 35.12 242.476 35.64C242.196 36.16 242.056 37.06 242.056 38.34V51H240.496C240.336 50.4 240.096 49.96 239.776 49.68C239.456 49.36 239.036 49.2 238.516 49.2C237.996 49.2 237.456 49.34 236.896 49.62C236.336 49.86 235.656 50.14 234.856 50.46C234.096 50.78 233.116 51.06 231.916 51.3C230.756 51.58 229.276 51.72 227.476 51.72ZM247.007 51V49.02C248.207 49.02 249.067 48.94 249.587 48.78C250.147 48.58 250.487 48.26 250.607 47.82C250.767 47.38 250.847 46.78 250.847 46.02V28.68C250.847 27.56 250.727 26.82 250.487 26.46C250.287 26.1 249.847 25.92 249.167 25.92H247.367V23.88L256.187 22.5H257.867V46.02C257.867 46.86 257.947 47.5 258.107 47.94C258.267 48.34 258.607 48.62 259.127 48.78C259.687 48.94 260.547 49.02 261.707 49.02V51H247.007ZM254.147 18.48C252.987 18.48 252.047 18.12 251.327 17.4C250.607 16.64 250.247 15.7 250.247 14.58C250.247 13.46 250.607 12.52 251.327 11.76C252.047 11 252.987 10.62 254.147 10.62C254.987 10.62 255.687 10.8 256.247 11.16C256.847 11.52 257.307 12 257.627 12.6C257.947 13.16 258.107 13.82 258.107 14.58C258.107 15.7 257.727 16.64 256.967 17.4C256.247 18.12 255.307 18.48 254.147 18.48ZM264.388 51V49.02C265.588 49.02 266.448 48.94 266.968 48.78C267.528 48.62 267.868 48.32 267.988 47.88C268.148 47.44 268.228 46.82 268.228 46.02V25.2H264.388V22.8H268.228V19.14C268.228 16.98 268.648 15.12 269.488 13.56C270.328 12 271.508 10.82 273.028 10.02C274.588 9.18 276.388 8.76 278.428 8.76C280.988 8.76 282.888 9.32 284.128 10.44C285.408 11.56 286.048 12.88 286.048 14.4C286.048 15.32 285.788 16.08 285.268 16.68C284.788 17.24 284.008 17.52 282.928 17.52C281.928 17.52 281.148 17.26 280.588 16.74C280.068 16.22 279.808 15.5 279.808 14.58C279.808 14.06 279.868 13.66 279.988 13.38C280.148 13.1 280.288 12.86 280.408 12.66C280.528 12.42 280.588 12.18 280.588 11.94C280.588 11.66 280.408 11.4 280.048 11.16C279.688 10.88 279.208 10.74 278.608 10.74C277.848 10.74 277.208 10.94 276.688 11.34C276.208 11.74 275.848 12.34 275.608 13.14C275.368 13.94 275.248 14.94 275.248 16.14V22.8H282.028V25.2H275.248V46.02C275.248 46.86 275.328 47.5 275.488 47.94C275.688 48.38 276.128 48.68 276.808 48.84C277.488 48.96 278.568 49.02 280.048 49.02V51H264.388ZM291.643 51.66C290.203 51.66 288.943 51.4 287.863 50.88C286.823 50.32 286.023 49.52 285.463 48.48C284.903 47.4 284.623 46.12 284.623 44.64V25.2H281.083V23.22C282.523 22.78 283.743 22.14 284.743 21.3C285.743 20.46 286.583 19.38 287.263 18.06C287.983 16.74 288.563 15.18 289.003 13.38H291.523V22.8H297.943V25.2H291.523V42.54C291.523 44.34 291.863 45.68 292.543 46.56C293.223 47.44 294.283 47.88 295.723 47.88C296.203 47.88 296.723 47.82 297.283 47.7C297.843 47.58 298.323 47.44 298.723 47.28L299.383 48.78C298.783 49.18 298.103 49.6 297.343 50.04C296.583 50.48 295.743 50.86 294.823 51.18C293.903 51.5 292.843 51.66 291.643 51.66Z" fill="#4A3F3F"/>
<path d="M295.5 2L297.796 7.83927L304 10L297.796 12.1607L295.5 18L293.204 12.1607L287 10L293.204 7.83927L295.5 2Z" fill="#C8958E"/>
<path d="M8.5 39L10.7958 44.8393L17 47L10.7958 49.1607L8.5 55L6.20423 49.1607L0 47L6.20423 44.8393L8.5 39Z" fill="#C8958E"/>
</svg>
