<svg width="30" height="24" viewBox="0 0 30 24" fill="none" xmlns="http://www.w3.org/2000/svg">
<path d="M26.4293 9.67323C25.9498 8.10677 25.0515 6.7028 23.8326 5.61452C24.4961 5.08123 23.8326 1.76626 23.8326 1.76626C23.8326 1.76626 21.1796 2.94736 20.7054 3.49998C20.7054 3.49998 18.6591 1.00391 12.7266 1.00391C6.79418 1.00391 1.2042 5.61523 1.2042 11.7692C1.2042 17.9231 5.63859 19.8859 5.63859 19.8859C5.86999 20.9717 6.22625 22.0267 6.7002 23.0298H9.05054C9.42621 22.4503 9.76165 21.8454 10.0545 21.2194C10.0545 21.2194 11.9306 21.4485 13.2763 21.4485C14.2246 21.4293 15.1694 21.3272 16.1001 21.1436C16.1804 21.8138 16.407 22.4579 16.7637 23.0298H19.322C20.118 22.344 20.516 20.1908 20.516 20.1908C20.516 20.1908 26.9597 17.2567 28.3246 15.5029C29.0644 14.112 28.9697 11.0254 28.9697 11.0254C28.2532 10.362 27.3783 9.89598 26.43 9.67252" stroke="black" stroke-linecap="round" stroke-linejoin="round"/>
</svg>
